<?xml version="1.0" encoding="UTF-8" standalone="no"?>
<!-- Created with Inkscape (http://www.inkscape.org/) -->

<svg
   version="1.1"
   id="svg1"
   width="323"
   height="323"
   viewBox="0 0 323 323"
   xml:space="preserve"
   xmlns="http://www.w3.org/2000/svg"
   xmlns:svg="http://www.w3.org/2000/svg"><defs
     id="defs1" /><g
     id="g1"><path
       id="path4"
       style="display:inline;fill:#00d1ff;fill-opacity:1;stroke-width:0.949037"
       d="m 164.06836,55.736328 c -3.62976,0.156579 -7.24341,0.565128 -10.80859,1.238281 -8.98997,1.697422 -22.70267,7.414248 -31.37696,13.082032 -15.94021,10.415333 -28.088946,27.75896 -32.996091,47.103519 -5.328139,21.00412 -1.344519,46.86851 9.6875,62.90625 1.765281,2.56627 3.208981,5.26106 3.208981,5.99023 0,1.35753 -10.567796,11.8271 -17.794919,17.62891 -2.218373,1.78088 -4.033203,3.74129 -4.033203,4.35742 0,0.61615 2.589353,3.59091 5.753906,6.60937 l 5.753907,5.48828 10.238279,-10.08984 c 5.63095,-5.54886 11.00103,-10.08789 11.9336,-10.08789 0.93256,0 4.73174,1.99946 8.4414,4.44336 8.24643,5.43278 19.01165,10.18895 27.73633,12.25391 8.76068,2.07351 27.17881,2.09232 35.76758,0.0371 30.85167,-7.38251 55.76815,-32.16418 62.37304,-62.03516 5.41322,-24.4815 -0.52539,-49.2917 -16.5664,-69.220704 -15.7233,-19.534285 -41.91005,-30.801128 -67.31836,-29.705078 z m 4.14844,12.830078 c 12.56689,0.01108 14.41174,0.24098 21.25781,2.634766 20.69423,7.235919 37.58677,23.613887 44.23242,42.882808 4.60071,13.33966 4.53746,33.17836 -0.14648,45.69727 -7.52244,20.10553 -23.62198,35.86162 -44.46485,43.51367 -6.17253,2.26612 -8.81912,2.65827 -19.92968,2.95313 -14.61472,0.38787 -19.32341,-0.60323 -31.32032,-6.59571 -14.22031,-7.10309 -23.92638,-16.89677 -31.78906,-32.07617 -5.37535,-10.37744 -7.091796,-17.69992 -7.091796,-30.25 0,-12.44392 1.645526,-19.54755 7.228516,-31.20117 3.74534,-7.817822 5.55367,-10.294879 12.55664,-17.199219 9.38634,-9.254135 15.65132,-13.236229 27.39062,-17.412109 7.86024,-2.796029 9.0673,-2.958736 22.07618,-2.947266 z" /><path
       id="path12"
       style="display:inline;fill:#ff5733;fill-opacity:1;stroke-width:0.193587"
       d="m 167.68913,87.394514 c -1.91743,0 -3.15642,0.542374 -4.43588,1.942304 -1.11045,1.215008 -1.56534,2.391113 -1.56534,4.04681 0,1.560127 0.43487,2.780485 1.36948,3.842265 l 0.75999,0.863204 v 2.593773 2.59339 l -1.98428,0.32026 c -1.68689,0.27215 -4.49126,0.97436 -5.58454,1.39821 -0.2367,0.0917 -0.43186,-0.16223 -0.83032,-1.08099 l -0.52102,-1.20123 0.48132,-0.50211 c 0.70185,-0.73275 1.0825,-1.79446 1.0825,-3.019142 0,-1.289143 -0.30943,-2.097308 -1.18421,-3.093621 -0.87284,-0.994117 -1.92647,-1.447366 -3.36509,-1.447366 -1.37859,0 -2.44532,0.439374 -3.32956,1.37137 -1.67662,1.767173 -1.67662,4.572069 0,6.339239 0.74064,0.78064 1.93467,1.36968 2.78811,1.37553 0.55116,0.004 0.66472,0.10503 1.02201,0.91274 0.72952,1.64921 0.73342,1.63453 -0.6318,2.33628 -0.6758,0.34737 -2.08507,1.20459 -3.13181,1.9045 l -1.90298,1.2723 -1.77292,-1.76535 c -1.73764,-1.73042 -1.77719,-1.79029 -1.98541,-3.0059 -0.27993,-1.63424 -0.92688,-2.88591 -1.9631,-3.79802 -1.61041,-1.41754 -3.84791,-1.870808 -6.03259,-1.22202 -1.44345,0.42865 -3.26186,2.24546 -3.73413,3.73072 -0.72236,2.27175 -0.19273,4.63751 1.39141,6.21522 1.09787,1.0934 2.04281,1.55316 3.74093,1.82055 1.3037,0.20528 1.316,0.2128 3.00288,1.90752 1.28406,1.29004 1.64731,1.76669 1.50219,1.96953 -1.12537,1.57298 -2.53703,3.78571 -3.19608,5.01021 -0.89455,1.66204 -0.77018,1.6172 -2.46409,0.89194 -0.75941,-0.32515 -0.82298,-0.40872 -0.8269,-1.08515 -0.008,-1.43175 -1.06813,-3.00478 -2.50983,-3.72505 -1.53678,-0.76775 -2.92729,-0.6876 -4.48768,0.25862 -3.08501,1.87076 -2.78615,6.54426 0.51648,8.07662 1.47526,0.68449 3.79359,0.38273 4.87674,-0.63484 l 0.42953,-0.40343 1.23563,0.52518 1.23564,0.52518 -0.52519,1.77519 c -0.28885,0.97622 -0.67683,2.62417 -0.86245,3.66228 l -0.33763,1.88748 h -2.60815 -2.60814 l -0.77926,-0.66697 c -0.99215,-0.84924 -2.22732,-1.26891 -3.73489,-1.26891 -1.65569,0 -2.8318,0.45489 -4.04681,1.56534 -1.39993,1.27946 -1.9423,2.51845 -1.9423,4.43588 0,1.91742 0.54237,3.15642 1.9423,4.43587 1.21501,1.11046 2.39112,1.56535 4.04681,1.56535 1.56013,0 2.78049,-0.43487 3.84227,-1.36948 l 0.8632,-0.75999 h 2.51173 2.51172 l 0.24425,1.5971 c 0.20978,1.37049 1.06874,4.80535 1.44473,5.77814 0.0914,0.23657 -0.16304,0.43203 -1.08137,0.8303 l -1.20123,0.52103 -0.50212,-0.48132 c -0.73275,-0.70185 -1.79446,-1.08251 -3.01913,-1.08251 -2.6209,0 -4.53524,1.89811 -4.54515,4.50696 -0.007,1.8939 0.95917,3.45815 2.60927,4.22377 0.95958,0.44522 2.7495,0.47772 3.73261,0.0677 1.46309,-0.61024 2.73898,-2.33122 2.74842,-3.70766 0.004,-0.55115 0.10503,-0.66472 0.91273,-1.022 1.43749,-0.63587 1.7472,-0.67352 1.88824,-0.22913 0.17437,0.5494 2.15341,3.80372 3.06451,5.03932 l 0.76565,1.03827 -1.78615,1.79371 c -1.62037,1.62714 -1.86919,1.8048 -2.68413,1.91546 -3.36055,0.45629 -5.41136,2.55728 -5.59514,5.7324 -0.10937,1.88929 0.37987,3.26106 1.60655,4.50543 1.18859,1.20562 2.34517,1.73145 4.03774,1.83606 3.29787,0.20382 6.01778,-2.13778 6.41523,-5.52292 0.12682,-1.08012 0.17603,-1.15523 1.88181,-2.88415 l 1.75136,-1.77519 0.98723,0.71953 c 1.32143,0.96336 3.27323,2.17463 4.5304,2.81156 1.13162,0.57332 1.12202,0.52059 0.40419,2.19715 -0.32515,0.75941 -0.40872,0.82297 -1.08515,0.8269 -1.43175,0.008 -3.00478,1.06813 -3.72505,2.50983 -0.76776,1.53678 -0.6876,2.92729 0.25862,4.48768 1.86627,3.07761 6.54793,2.77823 8.07661,-0.51648 0.68449,-1.47526 0.38274,-3.7936 -0.63483,-4.87675 l -0.40343,-0.42952 0.52707,-1.24055 0.52745,-1.24093 1.47271,0.46771 c 0.80999,0.25722 2.54414,0.65899 3.8536,0.89308 l 2.3809,0.42574 3.9e-4,2.58356 3.8e-4,2.58394 -0.75998,0.86321 c -0.93465,1.06177 -1.3695,2.28214 -1.3695,3.84226 0,1.61764 0.44943,2.81241 1.49501,3.97535 0.91234,1.01473 1.54672,1.42824 2.86071,1.86366 1.05881,0.35086 2.88707,0.20832 4.11752,-0.32101 1.27776,-0.54968 2.78778,-2.15235 3.2184,-3.41614 0.39423,-1.15702 0.39853,-3.03342 0.01,-4.17424 -0.16549,-0.48568 -0.60106,-1.23389 -0.96794,-1.6625 l -0.66697,-0.77927 v -2.72761 c 0,-1.50033 0.0392,-2.728 0.087,-2.728 0.45994,0 4.39959,-0.87243 5.5577,-1.23073 l 1.48254,-0.45863 0.52707,1.24055 0.52745,1.24055 -0.40343,0.42952 c -0.6295,0.67007 -1.00273,1.76466 -1.00273,2.94087 0,2.64324 1.90113,4.54099 4.54932,4.54099 2.64818,0 4.5493,-1.89775 4.5493,-4.54099 0,-1.29398 -0.38498,-2.29219 -1.21975,-3.16244 -0.81496,-0.8496 -1.5549,-1.21945 -2.72951,-1.36456 l -0.96378,-0.1191 -0.46317,-1.15245 c -0.53672,-1.33581 -0.73041,-1.07816 1.90033,-2.52572 0.9675,-0.53236 2.35386,-1.41431 3.08115,-1.95969 l 1.32259,-0.99139 1.83909,1.86253 c 1.79979,1.82277 1.84215,1.8866 1.96953,2.97187 0.1699,1.44771 1.08823,3.25922 2.08522,4.11261 1.73948,1.48893 4.55988,1.8798 6.56383,0.90971 1.11389,-0.53923 2.36373,-1.78678 2.91893,-2.91365 0.63597,-1.29075 0.63364,-4.01165 -0.004,-5.21061 -1.03146,-1.93784 -2.53572,-3.00264 -4.78638,-3.38816 -1.22184,-0.20929 -1.26708,-0.24004 -3.10232,-2.0822 l -1.8629,-1.86933 1.27269,-1.90336 c 0.69995,-1.0468 1.55712,-2.45601 1.90449,-3.13181 0.70176,-1.36522 0.68708,-1.36133 2.33629,-0.6318 0.78991,0.34941 0.90857,0.47732 0.90857,0.97965 0,1.35662 1.17787,3.01625 2.61343,3.68233 1.0257,0.4759 2.84606,0.4759 3.87176,0 1.63354,-0.75794 2.61343,-2.32566 2.61343,-4.18142 0,-2.62089 -1.89811,-4.53524 -4.50696,-4.54515 -1.26169,-0.005 -2.31975,0.36789 -3.06148,1.07834 l -0.50212,0.48132 -1.20123,-0.52102 c -0.84247,-0.36536 -1.16923,-0.60315 -1.09498,-0.79665 0.38215,-0.99587 1.08817,-3.78446 1.37894,-5.44578 l 0.34368,-1.9631 h 2.69548 2.69511 l 0.8632,0.75998 c 1.07837,0.94922 2.28635,1.37003 3.92506,1.36759 2.2603,-0.004 4.17904,-1.22547 5.23178,-3.3322 0.78145,-1.56382 0.83273,-3.58884 0.12932,-5.09945 -1.03971,-2.23282 -3.04007,-3.56889 -5.3437,-3.56889 -1.60367,0 -2.82471,0.40406 -3.83508,1.2689 l -0.77927,0.66697 h -2.80172 -2.80173 l -0.33764,-1.88748 c -0.18561,-1.03811 -0.57359,-2.68605 -0.86245,-3.66228 l -0.52518,-1.77518 1.23563,-0.52518 1.23563,-0.52518 0.42952,0.40343 c 0.67888,0.63776 1.77044,1.00317 2.98322,0.99856 2.60885,-0.01 4.50697,-1.92426 4.50697,-4.54515 0,-1.85575 -0.9799,-3.42348 -2.61344,-4.18142 -1.02569,-0.4759 -2.84606,-0.4759 -3.87175,0 -1.48595,0.68946 -2.61343,2.32668 -2.61343,3.795 0,0.62822 -0.0744,0.72238 -0.82275,1.0428 -1.67655,0.71783 -1.62382,0.72743 -2.19715,-0.40418 -0.63691,-1.25714 -1.84827,-3.20907 -2.81155,-4.53041 l -0.71953,-0.98685 1.87198,-1.84853 c 1.83262,-1.80959 1.89518,-1.85117 2.98095,-1.9786 1.44771,-0.1699 3.25921,-1.08824 4.1126,-2.08522 2.15492,-2.51755 1.87323,-6.24332 -0.64315,-8.50576 -2.32748,-2.092604 -5.95569,-2.00058 -8.15413,0.20682 -1.07018,1.07456 -1.52922,1.99465 -1.80808,3.62258 -0.20601,1.20272 -0.24278,1.25735 -2.08522,3.09287 l -1.87538,1.8682 -1.03864,-0.76566 c -1.23569,-0.91116 -4.48991,-2.89012 -5.03933,-3.0645 -0.44438,-0.14105 -0.40673,-0.45076 0.22913,-1.88824 0.35729,-0.80771 0.47086,-0.90896 1.02201,-0.91274 1.37643,-0.009 3.09742,-1.28532 3.70765,-2.74841 0.16511,-0.39586 0.30022,-1.204292 0.30022,-1.796738 0,-2.643235 -1.90112,-4.540988 -4.54931,-4.540988 -2.64819,0 -4.54931,1.897753 -4.54931,4.540988 0,1.225928 0.38072,2.286348 1.08477,3.021408 l 0.48359,0.50476 -0.50023,1.1309 c -0.27512,0.6221 -0.52248,1.15353 -0.54976,1.18081 -0.0273,0.0273 -0.7431,-0.16469 -1.59066,-0.42687 -1.20219,-0.37189 -5.1459,-1.24887 -5.61632,-1.24887 -0.0478,0 -0.087,-1.22768 -0.087,-2.728 v -2.727622 l 0.66697,-0.779265 c 0.84924,-0.992142 1.26891,-2.227313 1.26891,-3.734882 0,-1.655697 -0.45489,-2.831801 -1.56534,-4.04681 -1.27946,-1.399929 -2.51846,-1.942304 -4.43588,-1.942304 z m 5.61404,23.801826 c 2.51297,0 4.37807,1.14205 5.46242,3.34468 0.5479,1.11293 0.63559,1.49172 0.63559,2.75068 0,1.25921 -0.0875,1.63778 -0.63597,2.75182 -0.39439,0.80112 -0.9215,1.51799 -1.38801,1.88748 -1.77276,1.40406 -4.08671,1.87328 -5.95168,1.2069 -1.83832,-0.65687 -2.79149,-1.50414 -3.7519,-3.33561 -0.37109,-0.70767 -0.45436,-1.1647 -0.45749,-2.51059 -0.004,-1.50648 0.0519,-1.74843 0.65411,-2.86525 1.15862,-2.1486 2.97765,-3.23011 5.43293,-3.23011 z m -22.18658,9.45063 a 7.1813359,7.1813359 0 0 1 7.18127,7.18127 7.1813359,7.1813359 0 0 1 -7.18127,7.18126 7.1813359,7.1813359 0 0 1 -7.18126,-7.18126 7.1813359,7.1813359 0 0 1 7.18126,-7.18127 z m 35.41746,8.44035 c 1.40663,0.004 1.79214,0.0802 2.6554,0.52858 2.23831,1.16251 3.44192,3.109 3.43732,5.55808 -0.005,2.46943 -1.16684,4.3919 -3.28608,5.4352 -1.59102,0.78326 -3.23735,0.9279 -4.68164,0.41175 -2.17207,-0.77624 -3.42285,-2.09567 -4.0608,-4.28388 -0.38493,-1.32031 -0.25413,-2.76264 0.37394,-4.12886 0.65973,-1.43512 1.29656,-2.11218 2.69661,-2.86714 1.1171,-0.60238 1.35839,-0.65761 2.86525,-0.65373 z m -17.78019,2.83159 c 1.54591,0 2.50587,0.40244 3.51142,1.47194 1.01457,1.07911 1.31807,1.85218 1.31807,3.35641 0,1.95973 -0.93752,3.49354 -2.68604,4.39428 -0.83004,0.4276 -2.63352,0.62512 -3.4029,0.37281 -0.89375,-0.29309 -1.63967,-0.76027 -2.25198,-1.41107 -1.01438,-1.07816 -1.31805,-1.85167 -1.31805,-3.35602 0,-1.50423 0.30348,-2.2773 1.31805,-3.35641 1.00556,-1.0695 1.96552,-1.47194 3.51143,-1.47194 z m -15.58381,12.58319 c 1.40663,0.004 1.79214,0.0806 2.65541,0.52896 2.2383,1.16252 3.44192,3.10863 3.43731,5.55771 -0.005,2.46944 -1.16683,4.3919 -3.28607,5.4352 -1.59103,0.78326 -3.23735,0.9279 -4.68164,0.41175 -2.17208,-0.77624 -3.42285,-2.09567 -4.06081,-4.28388 -0.38493,-1.32031 -0.2545,-2.76264 0.37357,-4.12886 0.65973,-1.43512 1.29694,-2.11217 2.69699,-2.86714 1.11709,-0.60239 1.35839,-0.65761 2.86524,-0.65374 z m 22.64976,2.5053 c 1.6632,0 1.96276,0.0585 3.13218,0.61252 4.08379,1.93473 5.70892,6.46452 3.74698,10.44314 -1.25949,2.55412 -3.62641,4.11504 -6.44359,4.2491 -0.82509,0.0393 -1.8273,-0.0113 -2.22701,-0.11229 -2.19838,-0.55549 -4.08537,-2.10515 -5.12516,-4.20902 -0.69138,-1.39892 -0.73012,-1.57661 -0.73012,-3.33674 0,-1.75683 0.0397,-1.93964 0.72294,-3.322 0.87078,-1.76191 1.99182,-2.85954 3.79159,-3.71219 1.16942,-0.55402 1.46899,-0.61252 3.13219,-0.61252 z" /><path
       style="display:inline;fill:#00d1ff;fill-opacity:1;stroke-width:0.949037"
       d="m 162.774,286.84024 c -13.1562,-6.12519 -36.56628,-21.42832 -52.68642,-34.44103 -10.545037,-8.51231 -11.740102,-9.81324 -11.118189,-12.10306 0.141767,-0.52197 0.512641,-4.11819 0.824163,-7.9916 0.325736,-4.05013 1.035906,-7.19742 1.671336,-7.407 0.60771,-0.20044 5.94604,4.49295 11.86296,10.42973 5.91691,5.93679 13.36619,12.77127 16.55396,15.18773 8.86452,6.71967 31.22947,20.36291 36.93837,22.53342 5.05721,1.92275 34.92384,-16.78014 55.01646,-34.45207 19.56998,-17.21225 32.02933,-33.10228 41.82722,-53.34433 7.39573,-15.27929 10.96871,-25.45469 14.22524,-40.51184 2.36908,-10.95384 2.57191,-13.85317 3.24067,-46.325003 0.41697,-20.246028 0.35829,-35.330603 -0.14121,-36.30222 -0.47004,-0.914308 -2.44072,-2.331877 -4.37928,-3.150155 -3.86951,-1.63334 -46.86474,-17.804666 -60.46686,-22.74274 -4.69773,-1.70545 -12.59846,-4.589367 -17.55717,-6.408703 -17.46399,-6.407478 -26.71901,-9.217187 -30.36088,-9.217187 -4.06756,0 -10.90775,2.284691 -58.84856,19.655983 C 67.717,55.345182 57.02503,59.408066 55.381194,60.767796 c -1.100531,0.910325 -1.228471,5.804899 -0.760653,29.098526 0.630739,31.405208 1.409035,39.687338 5.396336,57.424238 3.350821,14.90563 6.80651,25.25364 12.771698,38.24467 2.468293,5.37546 4.26591,10.3518 3.994714,11.05853 -0.438626,1.14303 -8.056581,3.36834 -11.530966,3.36834 -2.131536,0 -9.459959,-15.8486 -14.57501,-31.52024 -7.914339,-24.24817 -8.817926,-31.6983 -9.384776,-77.378105 -0.376825,-30.365562 -0.221515,-39.462552 0.692531,-40.563904 0.648059,-0.78086 4.224997,-2.325001 7.948751,-3.431422 3.723754,-1.106421 13.603519,-4.571148 21.955041,-7.699391 8.351522,-3.128245 21.804116,-8.046717 29.89465,-10.929937 8.09054,-2.883221 19.19427,-6.849792 24.67495,-8.814602 29.80663,-10.685594 40.30646,-14.2149027 42.28989,-14.2149027 1.21094,0 5.32339,1.1121257 9.13879,2.47139 13.27063,4.7277687 40.22781,14.5247287 52.01631,18.9041197 6.52463,2.423877 14.63889,5.405951 18.0317,6.626831 3.39281,1.220879 12.57474,4.600551 20.40429,7.510381 7.82955,2.90983 16.49446,5.949201 19.25536,6.754158 9.10522,2.65468 8.74624,1.355036 8.70671,31.520717 -0.0726,55.393507 -2.38053,72.083587 -13.87821,100.360617 -15.76018,38.7601 -43.77274,69.70084 -85.89459,94.87323 -14.20447,8.48873 -25.94836,14.74514 -27.65193,14.73122 -0.62438,-0.005 -3.37062,-1.05001 -6.10278,-2.32202 z"
       id="path3" /><path
       style="display:inline;fill:#ff5733;fill-opacity:1;stroke-width:0.949037"
       d="M 11.326067,302.44205 C 0.99107725,299.33991 -4.7159069,286.29133 0.21326586,277.03351 1.2443751,275.09692 16.084935,259.30046 33.192291,241.93027 c 24.668204,-25.0472 31.597918,-31.57664 33.489946,-31.55547 1.749235,0.0196 5.357027,2.94888 13.523771,10.98047 6.125956,6.02458 11.138103,11.59769 11.138103,12.38469 0,1.42214 -54.924887,58.68707 -62.141,64.78848 -2.076398,1.75564 -4.773363,3.57156 -5.993264,4.03536 -2.693233,1.02396 -8.256647,0.96696 -11.88378,-0.12175 z"
       id="path1" /></g></svg>
